# AST/ASF file generated using VICON BodyLanguage
# -----------------------------------------------
:version 1.10
:name VICON
:units
  mass 1.0
  length 0.45
  angle deg
:documentation
   .ast/.asf automatically generated from VICON data using
   VICON BodyBuilder and BodyLanguage model FoxedUp or BRILLIANT.MOD
:root
   order TX TY TZ RX RY RZ
   axis XYZ
   position 0 0 0  
   orientation 0 0 0 
:bonedata
  begin
     id 1 
     name lhipjoint
     direction 0.714689 -0.624256 0.315473 
     length 2.45343 
     axis 0 0 0  XYZ
  end
  begin
     id 2 
     name lfemur
     direction 0.34202 -0.939693 0  
     length 6.59069  
     axis 0 0 20  XYZ
    dof rx ry rz
    limits (-160.0 20.0)
           (-70.0 70.0)
           (-60.0 70.0)
  end
  begin
     id 3 
     name ltibia
     direction 0.34202 -0.939693 0   
     length 6.73476   
     axis 0 0 20   XYZ
    dof rx
    limits (-10.0 170.0)
  end
  begin
     id 4 
     name lfoot
     direction 0.0718085 -0.197292 0.977711   
     length 1.52607   
     axis -90 7.62852e-016 20   XYZ
    dof rx rz
    limits (-45.0 90.0)
           (-70.0 20.0)
  end
  begin
     id 5 
     name ltoes
     direction 1.53553e-011 -4.22024e-011 1   
     length 0.777832   
     axis -90 7.62852e-016 20   XYZ
    dof rx
    limits (-90.0 20.0)
  end
  begin
     id 6 
     name rhipjoint
     direction -0.727419 -0.612432 0.309497   
     length 2.50079  
     axis 0 0 0  XYZ 
  end
  begin
     id 7 
     name rfemur
     direction -0.34202 -0.939693 0   
     length 6.51665   
     axis 0 0 -20   XYZ
    dof rx ry rz
    limits (-160.0 20.0)
           (-70.0 70.0)
           (-70.0 60.0)
  end
  begin
     id 8 
     name rtibia
     direction -0.34202 -0.939693 0   
     length 6.48919   
     axis 0 0 -20   XYZ
    dof rx
    limits (-10.0 170.0)
 end
 begin
     id 9 
     name rfoot
     direction -0.112205 -0.308282 0.944655   
     length 1.68717  
     axis -90 -7.62852e-016 -20   XYZ
    dof rx rz
    limits (-45.0 90.0)
           (-20.0 70.0)
  end
  begin
     id 10 
     name rtoes
     direction -1.53583e-011 -4.21993e-011 1   
     length 0.846859   
     axis -90 -7.62852e-016 -20   XYZ
    dof rx
    limits (-90.0 20.0)
  end
  begin
     id 11 
     name lowerback
     direction -0.00119603 0.996364 -0.0851956   
     length 1.67242   
     axis 0 0 0   XYZ
    dof rx ry rz
    limits (-20.0 45.0)
           (-30.0 30.0)
           (-30.0 30.0)
  end
  begin
     id 12 
     name upperback
     direction -0.00531001 0.998318 0.0577248   
     length 1.64819   
     axis 0 0 0   XYZ
    dof rx ry rz
    limits (-20.0 45.0)
           (-30.0 30.0)
           (-30.0 30.0)
  end
  begin
     id 13 
     name thorax
     direction -0.00653676 0.995132 0.0983291   
     length 1.67429   
     axis 0 0 0   XYZ
    dof rx ry rz
    limits (-20.0 45.0)
           (-30.0 30.0)
           (-30.0 30.0)
  end
  begin
     id 14 
     name lowerneck
     direction 0.0141424 0.999886 0.00525412   
     length 1.59623   
     axis 0 0 0   XYZ
    dof rx ry rz
    limits (-20.0 45.0)
           (-30.0 30.0)
           (-30.0 30.0)
  end
  begin
     id 15 
     name upperneck
     direction -0.0640064 0.987178 -0.146232   
     length 1.59576   
     axis 0 0 0   XYZ
    dof rx ry rz
    limits (-20.0 45.0)
           (-30.0 30.0)
           (-30.0 30.0)
  end
  begin
     id 16
     name head
     direction -0.0222942 0.998496 -0.0500859  
     length 1.60959  
     axis 0 0 0   XYZ
    dof rx ry rz
    limits (-20.0 45.0)
           (-30.0 30.0)
           (-30.0 30.0)
  end
  begin
     id 17 
     name lclavicle
     direction 0.908549 0.392612 0.142806  
     length 2.80649  
     axis 0 0 0   XYZ
    dof ry rz
    limits (-20.0 10.0)
           (0.0 20.0)
  end
  begin
     id 18 
     name lhumerus
     direction 1 -4.48968e-011 1.08832e-028   
     length 4.2884   
     axis -180 -30 -90   XYZ
    dof rx ry rz
    limits (-60.0 90.0)
           (-90.0 90.0)
           (-90.0 90.0)
  end
  begin
     id 19
     name lradius
     direction 1 -4.48952e-011 -3.02642e-028   
     length 3.06552   
     axis -180 -30 -90   XYZ
    dof rx
    limits (-10.0 170.0)
  end
  begin
     id 20
     name lwrist
     direction 1 -4.49014e-011 1.58672e-027   
     length 1.53276   
     axis -1.65735e-015 90 90   XYZ
    dof ry
    limits (-180.0 0.0)
 end
  begin
     id 21 
     name lhand
     direction 1 -4.48928e-011 3.17344e-027   
     length 0.753045   
     axis -2.02492e-015 90 90   XYZ
    dof rx rz
    limits (-90.0 90.0)
           (-45.0 45.0)
  end
  begin
     id 22 
     name lfingers
     direction 1 -4.48958e-011 6.34687e-027   
     length 0.607124   
     axis -4.04985e-015 90 90   XYZ
    dof rx
    limits (0.0 90.0)
  end
  begin
     id 23
     name lthumb
     direction 0.707107 -6.34905e-011 0.707107   
     length 0.871712   
     axis -90 45 2.85299e-015   XYZ
    dof rx rz
    limits (-45.0 45.0)
           (-45.0 45.0)
  end
  begin
     id 24 
     name rclavicle
     direction -0.885098 0.45949 0.0739604   
     length 2.9478  
     axis 0 0 0   XYZ 
    dof ry rz
    limits (-10.0 20.0)
           (-20.0 0.0)
  end
  begin
     id 25 
     name rhumerus
     direction -1 -4.4898e-011 -2.61739e-027  
     length 4.52172   
     axis -180 30 90   XYZ
    dof rx ry rz
    limits (-90.0 60.0)
           (-90.0 90.0)
           (-90.0 90.0)
  end
  begin
     id 26 
     name rradius
     direction -1 -4.48945e-011 9.02552e-028   
     length 2.8914   
     axis -180 30 90   XYZ
    dof rx
    limits (-10.0 170.0)
  end
  begin
     id 27 
     name rwrist
     direction -1 -4.49018e-011 1.58672e-027   
     length 1.4457   
     axis -1.65735e-015 -90 -90   XYZ
    dof ry
    limits (-180.0 0.0)
  end
  begin
     id 28
     name rhand
     direction -1 -4.48825e-011 3.17344e-027   
     length 0.680541   
     axis -2.02492e-015 -90 -90   XYZ
    dof rx rz
    limits (-90.0 90.0)
           (-45.0 45.0)
  end
  begin
     id 29
     name rfingers
     direction -1 -4.49067e-011 6.34687e-027   
     length 0.54867   
     axis -4.04985e-015 -90 -90   XYZ
    dof rx
    limits (0.0 90.0)
  end
  begin
     id 30
     name rthumb
     direction -0.707107 -6.34833e-011 0.707107   
     length 0.787783   
     axis -90 -45 -2.85299e-015   XYZ
    dof rx rz
    limits (-45.0 45.0)
           (-45.0 45.0)
  end
:hierarchy
  begin
    root lhipjoint rhipjoint lowerback
    lhipjoint lfemur
    lfemur ltibia
    ltibia lfoot
    lfoot ltoes
    rhipjoint rfemur
    rfemur rtibia
    rtibia rfoot
    rfoot rtoes
    lowerback upperback
    upperback thorax
    thorax lowerneck lclavicle rclavicle
    lowerneck upperneck
    upperneck head
    lclavicle lhumerus
    lhumerus lradius
    lradius lwrist
    lwrist lhand lthumb
    lhand lfingers
    rclavicle rhumerus
    rhumerus rradius
    rradius rwrist
    rwrist rhand rthumb
    rhand rfingers
  end

#!OML:ASF E:\emotionWalksFemale\Project 1\Capture day 1\Session 1\Female1.ASF
:FULLY-SPECIFIED
:DEGREES
141
root 9.15629 15.313 24.2838 -163.031 -3.28925 -179.91
lowerback 20.0162 0.594904 1.96214
upperback 0.543898 1.04513 0.219868
thorax -10.6248 0.307316 -1.16057
lowerneck -7.19261 -2.85769 -6.68257
upperneck -11.3602 -3.99118 6.97251
head -2.14022 -2.30708 3.46467
rclavicle -1.17283e-014 -1.19271e-015
rhumerus -46.7227 29.7438 -63.5746
rradius 46.0778
rwrist 18.2642
rhand -9.96927 -49.2491
rfingers 7.12502
rthumb 16.0132 -78.6073
lclavicle -1.17283e-014 -1.19271e-015
lhumerus -39.4399 -15.6881 50.017
lradius 44.6805
lwrist 5.55346
lhand -6.4549 -45.2264
lfingers 7.12502
lthumb 19.395 -16.1736
rfemur -34.1014 3.99296 24.3796
rtibia 34.5947
rfoot -19.629 -21.6887
rtoes 6.27655
lfemur -37.938 -10.1844 -16.926
ltibia 36.8677
lfoot -22.7413 5.61783
ltoes -39.5534
142
root 9.16871 15.2874 24.3094 -162.493 -3.51448 -179.779
lowerback 20.144 0.568094 2.20118
upperback 0.728655 1.04701 0.238475
thorax -10.4846 0.291583 -1.27605
lowerneck -7.31603 -2.87798 -6.48688
upperneck -11.7645 -4.06845 6.93928
head -2.25349 -2.3764 3.42438
rclavicle -1.2921e-014 -1.39149e-014
rhumerus -47.3381 29.8833 -63.9567
rradius 46.3201
rwrist 17.9671
rhand -9.73658 -49.5485
rfingers 7.12502
rthumb 16.2373 -78.8885
lclavicle -1.2921e-014 -1.39149e-014
lhumerus -40.0548 -16.6279 50.3378
lradius 44.9345
lwrist 5.8783
lhand -6.79709 -45.4183
lfingers 7.12502
lthumb 19.066 -16.3327
rfemur -35.158 3.84415 24.6153
rtibia 35.2123
rfoot -19.8041 -21.5818
rtoes 6.93958
lfemur -39.1242 -9.88272 -16.6739
ltibia 37.6013
lfoot -22.9671 5.23811
ltoes -39.3828
143
root 9.17595 15.2588 24.3364 -161.974 -3.67853 -179.54
lowerback 20.4528 0.535277 2.54717
upperback 0.798836 1.0846 0.30805
thorax -10.5713 0.287034 -1.41053
lowerneck -7.53308 -2.90925 -6.46873
upperneck -11.866 -4.12058 6.98237
head -2.24592 -2.41369 3.43272
rclavicle -1.11319e-014 1.55052e-014
rhumerus -48.116 30.281 -64.4372
rradius 46.4735
rwrist 17.7856
rhand -9.70112 -49.5474
rfingers 7.12502
rthumb 16.2714 -78.8847
lclavicle -1.11319e-014 1.55052e-014
lhumerus -40.9137 -17.4802 50.8124
lradius 45.1832
lwrist 6.20093
lhand -6.96637 -45.4255
lfingers 7.12502
lthumb 18.9032 -16.324
rfemur -36.2724 3.70165 24.966
rtibia 35.8858
rfoot -19.7869 -21.5662
rtoes 6.27036
lfemur -40.3069 -9.59352 -16.317
ltibia 38.3343
lfoot -23.1055 4.85753
ltoes -38.8389
144
root 9.18228 15.234 24.3632 -161.304 -3.65266 -179.473
lowerback 20.7024 0.575911 2.60325
upperback 0.744888 1.16423 0.344001
thorax -10.7674 0.318739 -1.43014
lowerneck -7.55051 -2.90427 -6.52683
upperneck -12.0275 -4.11942 7.05405
head -2.29594 -2.42121 3.47373
rclavicle -4.17448e-015 -5.96354e-015
rhumerus -49.1907 30.8999 -65.0486
rradius 46.7633
rwrist 17.273
rhand -9.92533 -49.4301
rfingers 7.12502
rthumb 16.0556 -78.7849
lclavicle -4.17448e-015 -5.96354e-015
lhumerus -41.9513 -18.2956 51.3806
lradius 45.4436
lwrist 6.44545
lhand -7.04514 -45.4075
lfingers 7.12502
lthumb 18.8274 -16.2987
rfemur -37.5537 3.60787 25.0839
rtibia 36.569
rfoot -19.5956 -21.557
rtoes 5.18941
lfemur -41.5984 -9.30092 -16.1759
ltibia 39.0691
lfoot -23.2144 4.70002
ltoes -38.7799
145
root 9.19369 15.2126 24.3862 -160.344 -3.46015 -179.75
lowerback 20.5693 0.691387 2.18244
upperback 0.664734 1.21974 0.265441
thorax -10.7885 0.368797 -1.29247
lowerneck -7.49237 -2.91948 -6.41624
upperneck -12.2546 -4.16499 7.04881
head -2.38181 -2.46003 3.45939
rclavicle -7.55382e-015 -3.57812e-015
rhumerus -50.3458 31.4246 -65.7349
rradius 47.1494
rwrist 16.5362
rhand -10.4097 -49.2349
rfingers 7.12502
rthumb 15.589 -78.6267
lclavicle -7.55382e-015 -3.57812e-015
lhumerus -43.1101 -19.2021 51.9341
lradius 45.7976
lwrist 6.72369
lhand -6.60459 -45.0522
lfingers 7.12502
lthumb 19.2511 -15.985
rfemur -39.1324 3.49509 24.777
rtibia 37.3076
rfoot -19.5292 -21.3516
rtoes 4.82192
lfemur -43.0717 -9.05773 -16.4137
ltibia 39.7551
lfoot -23.2974 4.788
ltoes -39.3768
146
root 9.19982 15.1881 24.4095 -159.731 -3.50667 -179.647
lowerback 20.7462 0.704665 2.31401
upperback 0.71726 1.26768 0.305688
thorax -10.8242 0.381644 -1.33899
lowerneck -7.45074 -2.97836 -6.33848
upperneck -12.5666 -4.27355 7.08798
head -2.4883 -2.53569 3.46858
rclavicle 2.78299e-015 1.19271e-015
rhumerus -51.3376 31.7763 -66.2729
rradius 47.4959
rwrist 16.2527
rhand -10.603 -49.1472
rfingers 7.12502
rthumb 15.4029 -78.5534
lclavicle 2.78299e-015 1.19271e-015
lhumerus -44.1552 -20.0913 52.5265
lradius 46.0337
lwrist 6.9733
lhand -4.69832 -43.3717
lfingers 7.12502
lthumb 21.0832 -14.4978
rfemur -40.3001 3.34684 24.9514
rtibia 38.0464
rfoot -19.7325 -21.1705
rtoes 4.78516
lfemur -44.2156 -8.83478 -16.2392
ltibia 40.4167
lfoot -23.3442 4.69405
ltoes -39.6322
147
root 9.2135 15.1596 24.4324 -159.207 -3.7886 -179.586
lowerback 21.0145 0.645013 2.36373
upperback 0.847513 1.20228 0.448439
thorax -10.8315 0.345158 -1.19209
lowerneck -7.50559 -2.97985 -6.44598
upperneck -12.9407 -4.30215 7.16739
head -2.60277 -2.57044 3.5285
rclavicle 1.68967e-014 5.56597e-015
rhumerus -52.0476 32.2128 -66.6443
rradius 47.7199
rwrist 16.0759
rhand -10.1724 -49.4197
rfingers 7.12502
rthumb 15.8177 -78.7935
lclavicle 1.68967e-014 5.56597e-015
lhumerus -44.997 -20.714 53.1404
lradius 46.1058
lwrist 7.13668
lhand -0.982087 -40.1904
lfingers 7.12502
lthumb 24.6494 -11.7578
rfemur -41.3636 3.1175 25.1647
rtibia 38.7916
rfoot -20.102 -21.0627
rtoes 5.49247
lfemur -45.3004 -8.7033 -16.0419
ltibia 41.0215
lfoot -23.3679 4.49631
ltoes -39.8526
